<?xml version="1.0" encoding="utf-8"?>
<!-- Generator: Adobe Illustrator 21.0.0, SVG Export Plug-In . SVG Version: 6.00 Build 0)  -->
<svg version="1.1" id="Layer_1" xmlns="http://www.w3.org/2000/svg" xmlns:xlink="http://www.w3.org/1999/xlink" x="0px" y="0px"
	 viewBox="0 0 612 220" style="enable-background:new 0 0 612 220;" xml:space="preserve">
<style type="text/css">
	.st0{fill:#FFFFFF;}
</style>
<g>
	<path class="st0" d="M240.8,56.4H240v-1.2c0-5.9-4.8-10.6-10.6-10.6h-2v-2.5c0-5.8-4.7-10.6-10.6-10.6H29.6
		c-5.8,0-10.6,4.7-10.6,10.6v110.8c0,5.8,4.7,10.6,10.6,10.6h2.1v2.4c0,5.9,4.8,10.6,10.6,10.6H43v1.2c0,5.9,4.8,10.6,10.6,10.6
		h187.1c5.9,0,10.6-4.8,10.6-10.6V67C251.4,61.2,246.6,56.4,240.8,56.4z M31.6,55.2v104.5h-2.1c-3.7,0-6.8-3-6.8-6.8V42.1
		c0-3.7,3-6.8,6.8-6.8h187.3c3.7,0,6.8,3,6.8,6.8v2.5H42.3C36.4,44.6,31.6,49.4,31.6,55.2z M43,67v105.7h-0.7
		c-3.8,0-6.9-3.1-6.9-6.9V55.2c0-3.8,3.1-6.9,6.9-6.9h187.1c3.8,0,6.9,3.1,6.9,6.9v1.2H53.6C47.8,56.4,43,61.2,43,67z M247.6,177.7
		c0,3.8-3.1,6.9-6.9,6.9H53.6c-3.8,0-6.9-3.1-6.9-6.9V67c0-3.8,3.1-6.9,6.9-6.9H240c0,0,0,0,0.1,0.1v-0.1h0.7c3.8,0,6.9,3.1,6.9,6.9
		V177.7z"/>
	<path class="st0" d="M87.6,136.2c-1.7,2.2-4.2,3.3-7.4,3.4c-3.2,0-5.8-1.2-7.9-3.7c-2.1-2.5-3.2-6.3-3.2-11.4
		c-0.1-5.1,0.9-9.1,2.8-11.9c1.9-2.8,4.6-4.2,8-4.3c3.3,0,5.8,0.9,7.6,2.9c1,1.1,1.8,2.7,2.4,4.9l9.5-0.1c-0.2-2.8-1.2-5.6-3.2-8.4
		c-3.6-5-9.1-7.4-16.7-7.3c-5.7,0.1-10.3,2-13.9,5.8c-4.2,4.4-6.2,10.5-6.1,18.4c0.1,7.3,2,13.1,5.8,17.3c3.8,4.1,8.9,6.2,15.3,6.1
		c5.2-0.1,9.5-1.7,12.8-4.8c3.3-3.1,5.3-7.2,6.1-12.2l-9.4,0.1C89.3,133.2,88.6,135,87.6,136.2z"/>
	<path class="st0" d="M126.8,99.1c-6.5,0.1-11.4,1.9-14.8,5.5c-4.6,4.2-6.8,10.5-6.7,18.8c0.1,8.2,2.5,14.4,7.1,18.7
		c3.5,3.5,8.5,5.2,15,5.1c6.5-0.1,11.4-1.9,14.8-5.5c4.5-4.4,6.7-10.7,6.6-18.8c-0.1-8.3-2.5-14.5-7.1-18.7
		C138.2,100.7,133.3,99,126.8,99.1z M136.2,134.9c-2.2,2.8-5.1,4.2-8.9,4.3c-3.8,0-6.8-1.3-9.1-4.1c-2.3-2.7-3.4-6.7-3.5-11.8
		c-0.1-5.1,1-9.1,3.2-11.9c2.2-2.8,5.2-4.2,9-4.3c3.8,0,6.8,1.3,9,4.1c2.2,2.8,3.4,6.7,3.5,11.8
		C139.4,128.1,138.3,132.1,136.2,134.9z"/>
	<path class="st0" d="M190.3,106.4c-2-2.8-4.6-4.7-7.8-5.7c-1.9-0.6-4.2-0.9-7-0.9l-19.6,0.2l0.6,45.5l19.6-0.2
		c6.9-0.1,11.9-3,15.1-8.7c2.4-4.2,3.5-9.4,3.5-15.4c0-2.4-0.4-4.9-1-7.5C193,111.1,191.9,108.7,190.3,106.4z M183.6,130.7
		c-1.7,4.4-4.8,6.7-9.3,6.7l-8.8,0.1l-0.4-29.7l8.8-0.1c4.3-0.1,7.2,1.2,8.7,3.6c1.5,2.5,2.3,6,2.3,10.6
		C185,125.4,184.5,128.3,183.6,130.7z"/>
	<polygon class="st0" points="211.5,136.7 211.3,125 233.4,124.7 233.3,116.8 211.2,117.1 211.1,107.5 235.1,107.2 235,99.1 
		201.7,99.5 202.3,145 236.7,144.6 236.6,136.4 	"/>
	<path class="st0" d="M289.7,102.2c-1.1-1.2-2.7-2.1-4.6-2.7c-1.9-0.7-4.4-1-7.3-0.9l-16.6,0.2l0.6,45.5l4.3-0.1l-0.3-20.1l9.7-0.1
		c2.1,0,4.2-0.2,6.3-0.6c2.1-0.4,3.9-1.1,5.6-2.1c1.6-1,2.9-2.3,4-3.9c1-1.7,1.5-3.7,1.5-6.3c0-1.7-0.3-3.3-0.7-4.8
		C291.7,104.7,290.9,103.4,289.7,102.2z M287.7,115.5c-0.6,1.2-1.4,2.2-2.6,2.9c-1.1,0.7-2.5,1.2-4.1,1.5c-1.6,0.3-3.4,0.4-5.4,0.4
		l-9.9,0.1l-0.2-18.1l11.1-0.1c4.1-0.1,7.1,0.7,9,2.1c1.9,1.4,2.9,3.6,2.9,6.5C288.6,112.8,288.3,114.3,287.7,115.5z"/>
	<polygon class="st0" points="304.8,140.1 304.6,122 328,121.7 328,118 304.6,118.3 304.4,101.9 330.3,101.6 330.3,97.9 300,98.3 
		300.6,143.8 331.5,143.4 331.4,139.7 	"/>
	<polygon class="st0" points="369.8,97.4 370.2,137.2 370.1,137.2 343.3,97.8 338.5,97.8 339,143.3 343.3,143.2 342.9,103.6 
		343,103.6 369.6,142.9 374.6,142.9 374,97.4 	"/>
	<path class="st0" d="M420,109.2c-0.6-1.7-1.4-3.4-2.4-5c-1-1.6-2.3-2.9-3.8-4c-1.1-0.7-2.2-1.3-3.3-1.8c-1.1-0.4-2.3-0.8-3.5-1
		c-1.2-0.2-2.4-0.4-3.6-0.4c-1.2,0-2.5-0.1-3.7,0l-15.5,0.2l0.6,45.5l15.5-0.2c1.5,0,3-0.1,4.5-0.3c1.5-0.2,2.9-0.5,4.3-0.9
		c1.4-0.4,2.7-1,3.9-1.7c1.2-0.7,2.4-1.7,3.4-2.9c1-1.2,1.9-2.4,2.6-3.8c0.7-1.4,1.2-2.8,1.6-4.3c0.4-1.5,0.7-3,0.9-4.6
		c0.2-1.6,0.2-3.1,0.2-4.6c0-1.5-0.2-3.2-0.4-5C421,112.7,420.6,111,420,109.2z M417.1,124.4c-0.2,1.7-0.6,3.3-1.1,4.8
		c-0.5,1.5-1.3,3-2.3,4.3c-0.9,1.3-2.2,2.4-3.7,3.1c-1.8,0.9-3.5,1.6-5.2,1.8c-1.7,0.3-3.5,0.4-5.5,0.4L389,139l-0.5-38.2l10.3-0.1
		c1.9,0,3.8,0.1,5.6,0.2c1.9,0.2,3.5,0.6,4.8,1.3c1.6,0.8,2.9,1.9,4,3.1c1,1.3,1.8,2.7,2.4,4.2c0.6,1.5,1,3.1,1.3,4.8
		c0.2,1.7,0.4,3.4,0.4,5C417.4,121.1,417.3,122.7,417.1,124.4z"/>
	<polygon class="st0" points="434.6,138.4 434.4,120.4 457.9,120.1 457.8,116.4 434.4,116.7 434.2,100.3 460.1,100 460.1,96.3 
		429.8,96.7 430.4,142.2 461.3,141.8 461.2,138.1 	"/>
	<polygon class="st0" points="499.6,95.8 500.1,135.6 499.9,135.6 473.2,96.1 468.3,96.2 468.9,141.7 473.2,141.6 472.7,102 
		472.8,102 499.4,141.3 504.4,141.3 503.9,95.8 	"/>
	<path class="st0" d="M545.3,130.8c-0.8,1.5-1.8,2.9-3,4c-1.2,1.1-2.6,2-4.2,2.7c-1.6,0.7-3.4,1-5.3,1c-3.1,0-5.7-0.5-7.8-1.7
		c-2.1-1.2-3.7-2.7-5-4.6c-1.2-1.9-2.1-4.1-2.7-6.5c-0.6-2.4-0.9-4.9-0.9-7.4c0-2.7,0.2-5.3,0.8-7.7c0.6-2.4,1.5-4.6,2.8-6.4
		c1.3-1.9,2.9-3.4,4.8-4.5c2-1.1,4.3-1.7,7.1-1.7c3.9,0,7,0.7,9.4,2.3c2.4,1.6,4.1,4.4,5,8.2l4.4-0.1c-0.4-2.4-1.1-4.4-2.1-6.2
		c-1-1.8-2.3-3.3-3.9-4.5c-1.6-1.2-3.3-2.1-5.3-2.7c-2-0.6-4.2-0.9-6.5-0.8c-3,0-5.8,0.5-8.4,1.4c-2.6,0.9-4.8,2.3-6.6,4.3
		c-1.9,1.9-3.3,4.4-4.4,7.5c-1,3-1.5,6.7-1.5,11.1c0,3.2,0.4,6.3,1.2,9.2c0.8,2.9,1.9,5.4,3.5,7.6c1.6,2.2,3.7,3.9,6.2,5.1
		c2.5,1.3,5.5,1.9,9,1.8c3,0,5.7-0.5,7.9-1.4c2.2-0.9,4.1-2.1,5.7-3.6c1.6-1.5,2.8-3.2,3.8-5.2c0.9-2,1.7-4.1,2.1-6.3l-4.5,0.1
		C546.7,127.6,546.1,129.2,545.3,130.8z"/>
	<polygon class="st0" points="592.3,94.7 587.3,94.7 573.9,116.8 560.2,95.1 555.3,95.1 571.8,120.9 572.1,140.4 576.4,140.4 
		576.1,120.5 	"/>
</g>
</svg>
